HIERARCHY
ROOT Hips
{
	OFFSET 0.000000 0.000000 0.000000
	CHANNELS 6 Xposition Yposition Zposition Zrotation Yrotation Xrotation 
	JOINT LHipJoint
	{
		OFFSET 0.000000 0.000000 0.000000
		CHANNELS 3 Zrotation Yrotation Xrotation
		JOINT LeftUpLeg
		{
			OFFSET 1.363060 -1.794630 0.839290
			CHANNELS 3 Zrotation Yrotation Xrotation
			JOINT LeftLeg
			{
				OFFSET 2.448110 -6.726130 0.000000
				CHANNELS 3 Zrotation Yrotation Xrotation
				JOINT LeftFoot
				{
					OFFSET 2.562200 -7.039590 0.000000
					CHANNELS 3 Zrotation Yrotation Xrotation
					JOINT LeftToeBase
					{
						OFFSET 0.157640 -0.433110 2.322550
						CHANNELS 3 Zrotation Yrotation Xrotation
						End Site
						{
							OFFSET 0.000000 0.000000 0.000000
						}
					}
				}
			}
		}
	}
	JOINT RHipJoint
	{
		OFFSET 0.000000 0.000000 0.000000
		CHANNELS 3 Zrotation Yrotation Xrotation
		JOINT RightUpLeg
		{
			OFFSET -1.305520 -1.794630 0.839290
			CHANNELS 3 Zrotation Yrotation Xrotation
			JOINT RightLeg
			{
				OFFSET -2.542530 -6.985550 0.000000
				CHANNELS 3 Zrotation Yrotation Xrotation
				JOINT RightFoot
				{
					OFFSET -2.568260 -7.056230 0.000000
					CHANNELS 3 Zrotation Yrotation Xrotation
					JOINT RightToeBase
					{
						OFFSET -0.164730 -0.452590 2.363150
						CHANNELS 3 Zrotation Yrotation Xrotation
						End Site
						{
							OFFSET 0.000000 0.000000 0.000000
						}
					}
				}
			}
		}
	}
}
MOTION
Frames: 28
Frame Time: 0.008333
3.513780 17.340510 1.313144 177.766535 -70.051941 -165.702163 -11.480529 3.293206 0.282336 -10.727314 21.893643 -13.007309 -2.690000 -1.301726 -0.532803 1.887607 13.432007 -2.670718 1.281599 -0.000000 -33.724601 9.615306 -1.890845 4.529589 -2.030567 3.258302 -15.388445 2.332608 1.072109 0.314467 0.797458 3.395317 8.315914 0.266300 0.000000 -70.285901
3.508620 17.340617 1.321846 177.350776 -70.355256 -164.971406 -11.439021 3.290828 0.405145 -11.052949 21.370389 -13.535411 -2.702443 -1.307334 -0.269350 1.912635 13.491495 -2.788135 1.271800 0.000001 -33.619600 9.632696 -1.865293 4.552210 -2.179575 3.108845 -15.919557 2.301462 1.064640 0.658709 0.763528 3.167875 8.124123 0.196600 -0.000000 -70.351399
3.503969 17.340456 1.331697 176.857943 -70.746369 -164.165506 -11.394284 3.285128 0.537059 -11.373143 20.755961 -14.052084 -2.710449 -1.312084 0.003747 1.938772 13.551319 -2.904942 1.263100 -0.000001 -33.521600 9.653556 -1.834445 4.556461 -2.335206 2.906473 -16.428216 2.265651 1.055610 1.014319 0.721836 2.898083 7.909981 0.116100 0.000000 -70.412200
3.499403 17.339937 1.342732 176.278826 -71.241697 -163.265022 -11.346952 3.275972 0.681575 -11.687444 20.047385 -14.580700 -2.715749 -1.315185 0.307732 1.964105 13.594164 -3.030540 1.251500 -0.000000 -33.427200 9.676381 -1.799874 4.545919 -2.495001 2.653721 -16.914376 2.225251 1.047029 1.370223 0.669849 2.566248 7.675669 0.019900 0.000000 -70.459600
3.495221 17.339064 1.355170 175.596482 -71.851460 -162.259713 -11.297836 3.262376 0.837066 -11.987908 19.245869 -15.116428 -2.718263 -1.315949 0.644234 1.987090 13.610735 -3.164472 1.235900 -0.000000 -33.335600 9.700656 -1.761282 4.517825 -2.655324 2.347436 -17.363083 2.180461 1.039371 1.716778 0.606329 2.166497 7.423870 -0.092901 0.000000 -70.489700
3.491793 17.337790 1.369279 174.780018 -72.582252 -161.132636 -11.247496 3.242952 0.998179 -12.262875 18.347015 -15.621516 -2.715454 -1.314430 0.992335 2.007703 13.608048 -3.295014 1.219600 0.000000 -33.248600 9.727547 -1.716882 4.462643 -2.816628 1.978127 -17.742861 2.130727 1.031268 2.047465 0.530864 1.703417 7.156291 -0.219900 -0.000000 -70.500400
3.489085 17.336152 1.385012 173.790707 -73.444281 -159.844244 -11.197205 3.217158 1.166049 -12.510050 17.353154 -16.103294 -2.708235 -1.310434 1.355640 2.023808 13.573429 -3.421275 1.201700 -0.000000 -33.167300 9.755436 -1.667901 4.381586 -2.975979 1.546578 -18.046078 2.076476 1.024126 2.349403 0.441739 1.166465 6.876039 -0.363000 -0.000001 -70.483300
3.487087 17.334183 1.402361 172.566749 -74.444565 -158.335727 -11.148542 3.184230 1.340438 -12.725929 16.267255 -16.556656 -2.696805 -1.304207 1.728133 2.033444 13.498737 -3.537324 1.182700 -0.000000 -33.093999 9.783005 -1.615485 4.273667 -3.131652 1.049888 -18.260125 2.018093 1.018535 2.611481 0.337900 0.551920 6.586222 -0.522400 -0.000001 -70.430900
3.485573 17.331882 1.421207 171.014759 -75.588434 -156.512767 -11.103828 3.143341 1.522073 -12.908679 15.095289 -16.981740 -2.681940 -1.296314 2.105348 2.034057 13.372556 -3.637102 1.162800 0.000001 -33.033000 9.808043 -1.562173 4.139889 -3.280908 0.485770 -18.376764 1.956262 1.015240 2.822359 0.218260 -0.144273 6.290640 -0.698300 0.000001 -70.335900
3.484732 17.329322 1.441269 168.959267 -76.875178 -154.209894 -11.064614 3.091825 1.709338 -13.057770 13.835364 -17.352543 -2.662535 -1.288773 2.462208 2.024652 13.199565 -3.704878 1.146200 0.000000 -32.991900 9.829698 -1.509945 3.977072 -3.427704 -0.153523 -18.380012 1.890811 1.012877 2.974543 0.082668 -0.915658 5.990478 -0.887600 0.000000 -70.196000
3.483542 17.326494 1.462449 166.145081 -78.314023 -151.152642 -11.035772 3.027407 1.910347 -13.176324 12.501437 -17.720268 -2.642773 -1.282246 2.829878 1.999720 12.943009 -3.749783 1.127100 -0.000000 -32.973000 9.841361 -1.468327 3.798850 -3.560260 -0.865456 -18.291032 1.823969 1.014002 3.053652 -0.071634 -1.779426 5.691808 -1.095001 -0.000000 -70.001000
3.482468 17.323447 1.484193 162.001937 -79.894957 -146.789912 -11.015806 2.939845 2.119018 -13.265476 11.080058 -18.021821 -2.619624 -1.282800 3.158989 1.959435 12.626717 -3.742349 1.114200 0.000000 -32.987900 9.845938 -1.443709 3.598770 -3.691868 -1.667685 -18.086106 1.753563 1.011882 3.058883 -0.244695 -2.716747 5.391705 -1.312900 -0.000000 -69.758500
3.481129 17.320204 1.506034 155.417031 -81.614789 -140.007334 -10.994889 2.812686 2.333707 -13.327624 9.565148 -18.246829 -2.595373 -1.298230 3.446908 1.899570 12.241389 -3.671361 1.108701 0.000000 -33.043900 9.852104 -1.453044 3.385499 -3.822945 -2.574659 -17.769909 1.677130 0.998932 2.983921 -0.440461 -3.730040 5.089343 -1.539300 -0.000000 -69.473500
3.478577 17.316670 1.527915 143.976231 -83.460213 -128.373200 -10.925743 2.625175 2.553668 -13.349215 7.958600 -18.432370 -2.579453 -1.339345 3.736197 1.811770 11.745231 -3.544268 1.104800 0.000000 -33.143000 9.902331 -1.521515 3.184693 -3.922100 -3.596748 -17.373752 1.589490 0.964495 2.818868 -0.667501 -4.841326 4.785465 -1.776899 -0.000000 -69.143600
3.474867 17.312848 1.549187 122.620586 -85.253536 -106.836996 -10.639148 2.404671 2.764763 -13.278796 6.254247 -18.536059 -2.587759 -1.411335 3.997490 1.699706 11.157155 -3.350058 1.108200 0.000000 -33.293500 10.158632 -1.622223 3.003659 -3.931496 -4.735379 -16.888709 1.475616 0.899454 2.571721 -0.924814 -6.037708 4.481913 -2.019699 0.000000 -68.785500
3.469797 17.308655 1.569551 88.889162 -86.318514 -72.939826 -10.004803 2.370242 2.999211 -13.072679 4.532348 -18.639401 -2.632938 -1.450124 4.159440 1.600082 10.559213 -3.132500 1.117499 -0.000000 -33.495100 10.746370 -1.559343 2.792445 -3.788695 -5.892944 -16.320550 1.346517 0.872583 2.300579 -1.162471 -7.224633 4.215594 -2.265400 -0.000000 -68.410700
3.455024 17.303477 1.597137 48.312828 -85.917750 -31.991544 -9.325017 2.741804 3.649551 -12.486699 1.816085 -19.403754 -2.616173 -1.338179 4.572676 1.592780 10.130673 -3.114267 1.111200 -0.000000 -33.652300 11.343455 -1.145661 2.321850 -3.197519 -7.958453 -15.748174 1.354373 1.050504 1.860452 -1.280328 -8.205680 4.130577 -2.517300 0.000000 -68.046700
3.447044 17.298160 1.615273 35.953950 -84.309942 -19.474511 -9.219780 2.920144 4.032084 -12.438489 0.055105 -19.557056 -2.616748 -1.267802 4.448375 1.522466 9.611663 -2.786206 1.130300 0.000000 -33.964800 11.425070 -0.896631 1.956882 -3.319056 -9.179024 -15.074449 1.296419 1.158250 1.620399 -1.442909 -9.258367 3.927945 -2.760400 0.000000 -67.684000
3.436821 17.292141 1.632659 29.145081 -82.210753 -12.493317 -9.182075 3.007820 4.431533 -12.401262 -1.803424 -19.688851 -2.614955 -1.226808 4.313885 1.427623 9.018207 -2.387261 1.146601 0.000000 -34.317200 11.438801 -0.736881 1.615015 -3.478543 -10.508454 -14.395093 1.238593 1.239152 1.348750 -1.630299 -10.368753 3.721270 -3.006000 -0.000000 -67.327999
3.425662 17.285434 1.648362 25.137104 -79.820033 -8.323653 -9.140511 3.042168 4.836166 -12.364841 -3.749890 -19.742779 -2.617456 -1.206216 4.123029 1.318974 8.398953 -1.912837 1.164300 0.000000 -34.688800 11.452890 -0.621442 1.276127 -3.677800 -11.934558 -13.678129 1.175287 1.296217 1.069048 -1.831367 -11.500308 3.516044 -3.246400 0.000000 -67.000300
3.412847 17.277934 1.663498 22.532701 -77.240943 -5.538936 -9.086916 3.047228 5.258467 -12.309427 -5.761435 -19.795657 -2.626817 -1.196825 3.910594 1.200146 7.746054 -1.389885 1.176100 -0.000000 -35.080600 11.472595 -0.534289 0.950888 -3.882949 -13.416483 -12.966130 1.110577 1.340679 0.793527 -2.043355 -12.663495 3.318376 -3.488901 -0.000000 -66.684801
3.400016 17.269676 1.677126 20.807698 -74.528115 -3.645511 -9.018605 3.027878 5.682319 -12.250333 -7.821482 -19.787157 -2.643953 -1.194442 3.645878 1.075936 7.087724 -0.813084 1.183700 -0.000000 -35.462100 11.501676 -0.460357 0.621066 -4.122711 -14.950241 -12.218800 1.042449 1.370646 0.535443 -2.259679 -13.832726 3.130792 -3.727300 -0.000000 -66.389701
3.386847 17.260645 1.690340 19.571311 -71.713914 -2.231372 -8.941266 2.989881 6.115488 -12.171292 -9.915258 -19.773522 -2.668385 -1.195601 3.358343 0.947655 6.416423 -0.200613 1.181900 -0.000001 -35.842600 11.532901 -0.399931 0.298015 -4.369188 -16.504567 -11.468776 0.974567 1.391649 0.298460 -2.481196 -15.023442 2.955868 -3.968600 -0.000000 -66.093099
3.374612 17.250926 1.702303 18.677765 -68.824092 -1.174651 -8.855120 2.932669 6.541945 -12.086673 -12.015988 -19.711429 -2.701486 -1.198309 3.035558 0.816713 5.738975 0.446443 1.169599 -0.000000 -36.196100 11.567568 -0.347566 -0.029809 -4.640309 -18.075647 -10.682044 0.905753 1.401442 0.085457 -2.704059 -16.220942 2.796024 -4.209600 -0.000000 -65.786699
3.363791 17.240619 1.713109 18.000725 -65.878515 -0.353319 -8.762213 2.857580 6.957106 -11.997183 -14.101790 -19.605409 -2.743553 -1.200997 2.685910 0.683693 5.050933 1.119898 1.143800 -0.000000 -36.523901 11.603929 -0.303056 -0.361896 -4.929285 -19.650551 -9.857869 0.837496 1.401377 -0.104728 -2.926839 -17.424122 2.652975 -4.451800 0.000000 -65.451200
3.354900 17.229851 1.722462 17.468505 -62.896459 0.294280 -8.663514 2.765824 7.353182 -11.909965 -16.146508 -19.445871 -2.795291 -1.202640 2.312785 0.548836 4.346818 1.813915 1.101800 0.000000 -36.824400 11.642139 -0.265839 -0.700212 -5.235913 -21.221709 -8.987356 0.770588 1.392066 -0.275030 -3.147505 -18.627738 2.528119 -4.695200 0.000000 -65.068600
3.348170 17.218727 1.729996 17.036390 -59.897894 0.804736 -8.559647 2.659417 7.723065 -11.835121 -18.123056 -19.223461 -2.857526 -1.202726 1.919828 0.412122 3.618662 2.522637 1.040500 0.000000 -37.101100 11.683061 -0.235669 -1.046088 -5.560950 -22.784913 -8.064082 0.706078 1.374442 -0.429565 -3.363507 -19.823163 2.422459 -4.939199 -0.000000 -64.623100
3.343799 17.207387 1.735271 16.674849 -56.903927 1.197575 -8.451127 2.540709 8.059995 -11.785599 -20.003962 -18.927954 -2.930987 -1.201059 1.510932 0.273527 2.858132 3.241234 0.956700 0.000001 -37.357800 11.727927 -0.212075 -1.400281 -5.907771 -24.337335 -7.084436 0.644875 1.349491 -0.571897 -3.572172 -20.999690 2.336042 -5.182200 -0.000001 -64.100401
